<?xml version="1.0" encoding="UTF-8"?>
<svg xmlns="http://www.w3.org/2000/svg" width="720" height="280" viewBox="0 0 720 280">
  <rect width="100%" height="100%" fill="#fffaf3"/>
  <text x="56" y="22" font-size="14" font-family="ui-sans-serif, sans-serif" fill="#222">Memorised CUSUM series (docs/04)</text>
  <text x="56" y="276" font-size="10" fill="#666">word count per unit (x) · cumulative sum of (x − mean)</text>
  <line x1="56" y1="36.0" x2="702" y2="36.0" stroke="#bbb" stroke-dasharray="3 3"/>
  <line x1="56" y1="36" x2="56" y2="240" stroke="#888"/>
  <line x1="56" y1="240" x2="702" y2="240" stroke="#888"/>
  <line x1="379.0" y1="36" x2="379.0" y2="240" stroke="#c0392b" stroke-dasharray="4 3" stroke-width="1.5"/>
  <polyline fill="none" stroke="#1f4e79" stroke-width="2.2" points="56.0,36.0 136.8,90.9 217.5,138.0 298.2,192.9 379.0,240.0 459.8,185.1 540.5,145.8 621.2,98.8 702.0,36.0"/>
  <circle cx="56.0" cy="36.0" r="3.2" fill="#1f4e79"/><circle cx="136.8" cy="90.9" r="3.2" fill="#1f4e79"/><circle cx="217.5" cy="138.0" r="3.2" fill="#1f4e79"/><circle cx="298.2" cy="192.9" r="3.2" fill="#1f4e79"/><circle cx="379.0" cy="240.0" r="3.2" fill="#1f4e79"/><circle cx="459.8" cy="185.1" r="3.2" fill="#1f4e79"/><circle cx="540.5" cy="145.8" r="3.2" fill="#1f4e79"/><circle cx="621.2" cy="98.8" r="3.2" fill="#1f4e79"/><circle cx="702.0" cy="36.0" r="3.2" fill="#1f4e79"/>
  <text x="136.8" y="266" text-anchor="middle" font-size="10" fill="#444">4</text><text x="217.5" y="266" text-anchor="middle" font-size="10" fill="#444">5</text><text x="298.2" y="266" text-anchor="middle" font-size="10" fill="#444">4</text><text x="379.0" y="266" text-anchor="middle" font-size="10" fill="#444">5</text><text x="459.8" y="266" text-anchor="middle" font-size="10" fill="#444">18</text><text x="540.5" y="266" text-anchor="middle" font-size="10" fill="#444">16</text><text x="621.2" y="266" text-anchor="middle" font-size="10" fill="#444">17</text><text x="702.0" y="266" text-anchor="middle" font-size="10" fill="#444">19</text>
  <text x="8" y="46" font-size="10" fill="#666">+S</text>
  <text x="8" y="240" font-size="10" fill="#666">−S</text>
  <text x="570" y="22" font-size="11" fill="#666">mean = 11.00</text>
</svg>
